<svg width="1368" height="430" viewBox="0 0 1368 430" fill="none" xmlns="http://www.w3.org/2000/svg">
<rect x="5" y="5" width="1358" height="420" rx="41" stroke="#C4C4C4" stroke-width="9" stroke-linecap="round" stroke-dasharray="27 27"/>
<path d="M577 229C615.66 229 647 197.66 647 159C647 120.34 615.66 89 577 89C538.34 89 507 120.34 507 159C507 197.66 538.34 229 577 229Z" fill="#C4C4C4"/>
<path d="M1302 404C1324.64 404 1343 385.644 1343 363V190.069L1248.51 119.633C1193.73 78.789 1105.23 78.789 1050.44 119.633L758.258 337.264C703.473 378.108 614.974 378.108 560.189 337.264L537.011 319.585C487.142 282.399 407.072 278.741 351.584 311.051L192.077 404H1302Z" fill="#C4C4C4"/>
</svg>
