<?xml version="1.0" encoding="utf-8"?>
<!-- Generator: Adobe Illustrator 24.0.1, SVG Export Plug-In . SVG Version: 6.00 Build 0)  -->
<svg version="1.1" id="图层_1" xmlns="http://www.w3.org/2000/svg" xmlns:xlink="http://www.w3.org/1999/xlink" x="0px" y="0px"
	 viewBox="0 0 862.6 120.6" style="enable-background:new 0 0 862.6 120.6;" xml:space="preserve">
<style type="text/css">
	.st0{fill:#FF8C00;}
	.st1{fill:#FFFFFF;}
</style>
<title>CRUST NFT</title>
<path class="st0" d="M2.7,28.4L50.6,0.7c1.6-1,3.7-1,5.3,0l30.2,17.4c2.6,1.5,3.4,4.7,2,7.3c-0.2,0.4-0.5,0.8-0.8,1.1L76.9,36.8
	c-1.7,1.7-4.3,2.1-6.4,0.8l-14.6-8.4c-1.7-1-3.8-1-5.4,0L0,58.7V33C0,31.1,1,29.3,2.7,28.4z"/>
<path class="st1" d="M86.2,102.4l-30.3,17.5c-1.6,1-3.7,1-5.3,0L2.7,92.2C1,91.3,0,89.5,0,87.6V64.3L24.7,50v23.3
	c0,1.9,1,3.7,2.7,4.7l23.2,13.4c1.6,1,3.7,1,5.3,0l14.7-8.5c2.1-1.2,4.7-0.9,6.4,0.8L87.3,94c2.1,2.1,2.1,5.5,0,7.5
	C86.9,101.9,86.6,102.1,86.2,102.4z"/>
<path class="st1" d="M279.7,12.9v72.4c0,5-2.1,5.5-6.7,5.5h-36.7c-1.4,0.1-2.8-0.5-3.9-1.4c-0.6-0.5-1.5-0.4-1.5-5V12.9h-18.6v73.5
	c-0.2,5.8,2.1,11.4,6.3,15.4c4,3.9,9.7,5.9,17,5.9h39.2c6.7,0,12.3-2.1,16.7-6.1s6.8-8.8,6.8-16.9V12.9H279.7z"/>
<path class="st1" d="M392.1,58c-3.6-3.9-8.5-5.9-14.5-5.9H344c-1.9,0.1-3.7-0.5-5-1.9c-1.5-1.4-1.6-2.8-1.6-4.6v-9.7
	c-0.2-1.7,0.4-3.4,1.5-4.7c0.7-0.7,1.8-1.5,5.8-1.5H397V12.8h-59c-6.7-0.1-12.9,3.1-16.6,8.7c-1.7,2.4-2.5,6.4-2.5,12.3v17.6
	c0,5.5,1.4,9.7,4.2,12.5c3.4,3.4,7.9,5.1,13.4,5.1h35.4c2.3,0,3.9,0.4,4.9,1.3c1.3,0.9,2.2,2.4,2.3,4v9.6c0,4.7-0.9,4.6-1.4,5.1
	c-1.4,1.3-3.4,2-5.3,1.9h-53.5v16.9H376c6.6,0,12.1-2.1,16.2-6.4c3.7-3.8,5.5-9.1,5.5-15.8v-11C397.5,67.4,395.7,61.9,392.1,58z"/>
<polygon class="st1" points="419.7,12.9 419.7,29.8 450.7,29.8 450.7,107.7 469.2,107.7 469.2,29.8 500.6,29.8 500.6,12.9 "/>
<polygon class="st0" points="781.7,12.9 781.7,29.8 812.7,29.8 812.7,107.7 831.2,107.7 831.2,29.8 862.6,29.8 862.6,12.9 "/>
<path class="st1" d="M193.1,52.2c0.5-5.5,0-18.5,0-18.5c0-8.5-3.8-14.7-11.2-18.6c-2.9-1.5-7.3-2.3-13.5-2.3l-35,0.1
	c-5.5,0-22-0.1-22-0.1l8.4,16.9h45.9c4.1,0,8.7,0.7,8.7,6.4v13.8c0,4.5-2.2,6.4-7.2,6.4h-55.8v51.5H130V73.2h28.2l12.9,34.6h22.1
	c0,0-13.1-35-13.4-35.8c-0.5-1.1,5.5-2,9.2-6S192.7,57.7,193.1,52.2z"/>
<path class="st0" d="M755.6,50.6h-48.2c-1.7,0.1-3.3-0.5-4.5-1.6c-1.3-1.2-1.5-5.9-1.5-7.5v-8.4c-0.1-1.5,0.4-2.9,1.4-4
	c0.6-0.6,1.6-1.3,5.2-1.3h47.5v-0.6h0.1l-0.1-0.5V13.2H702c-6-0.2-11.6,2.6-15.1,7.5c-1.5,2-2.3,5.5-2.3,10.6V50
	c0,0.9,0.1,1.8,0.2,2.8v54.9h15.8V65.2h55.1L755.6,50.6z"/>
<path class="st0" d="M639.1,12.9l0.8,75.1c0,1.5-1.3,3-2.2,4c-1,1-4.2,1.4-5.9,1.4c-2-0.2-3.9-0.9-5.6-2c-0.7-0.5-1.2-1.2-1.7-1.9
	l-0.4-0.9l-17.6-59.1c-0.8-2.5-1.9-4.9-3.3-7.1c-1.2-2-2.8-3.9-4.6-5.4c-0.8-0.6-1.6-1.2-2.5-1.7c-3.1-1.9-7.2-2.9-12.3-2.9
	c-7.1,0-16.2,0.9-19.7,4.6s-4.8,8.6-4.8,14.7v75.9h16.9L575,32.3c0-1.4,0.6-2.6,1.6-3.6s4.2-1.4,5.9-1.4c2,0.2,3.9,0.9,5.6,2
	c0.6,0.5,1.2,1.1,1.7,1.8c0.2,0.4,0.3,0.8,0.5,1.1L607.8,91c0.8,2.5,1.9,4.8,3.3,7.1c1.2,2,2.8,3.9,4.6,5.4c0.8,0.6,1.6,1.2,2.4,1.7
	c3.1,1.9,7.2,2.9,12.3,2.9c7.1,0,16.2-0.9,19.7-4.6S655,95,655,88.9V12.8L639.1,12.9z"/>
</svg>
